<svg xmlns="http://www.w3.org/2000/svg" width="108" height="35" fill="none" viewBox="0 0 108 35"><path fill="#000" fill-rule="evenodd" d="M28.993 29.402q.753 0 1.564-.2a13 13 0 0 0 1.624-.515 8.93 8.93 0 0 0 2.794-1.75V21.85h-3.804q-2.89 0-4.22.994-1.324.995-1.325 3.14-.001 3.42 3.367 3.42m-6.868-3.26q-.001-3.3 2.209-5.029 2.206-1.729 6.423-1.73h4.218v-1.39q0-5.049-4.457-5.049-1.43 0-3.001.398-1.574.398-2.885.993l-1.076-2.584a15 15 0 0 1 3.523-1.411 14.5 14.5 0 0 1 3.678-.497q7.719 0 7.718 8.228v13.913H35.77l-.438-2.385a13 13 0 0 1-3.48 2.028q-1.85.715-3.523.715-2.902 0-4.553-1.65-1.652-1.65-1.652-4.55" clip-rule="evenodd"/><mask id="a" width="19" height="33" x="44" y="0" maskUnits="userSpaceOnUse" style="mask-type:luminance"><path fill="#fff" fill-rule="evenodd" d="M44.988.463H62.41v32.08H44.988z" clip-rule="evenodd"/></mask><g mask="url(#a)"><path fill="#000" fill-rule="evenodd" d="m58.432 9.686 2.865 2.066-7.04 8.825 8.153 9.779-2.822 2.187-9.627-11.768zm-9.784 22.299h-3.66V1.258l3.66-.795z" clip-rule="evenodd"/></g><path fill="#000" fill-rule="evenodd" d="M72.522 29.402q.751 0 1.564-.2a13 13 0 0 0 1.625-.515 9 9 0 0 0 1.525-.776 9 9 0 0 0 1.266-.974V21.85H74.7q-2.895 0-4.219.994-1.327.995-1.326 3.14-.001 3.42 3.367 3.42m-6.869-3.26q0-3.3 2.207-5.029c1.474-1.152 3.613-1.73 6.426-1.73h4.216v-1.39q0-5.049-4.455-5.049-1.432 0-3.004.398-1.574.398-2.883.993l-1.074-2.584a15 15 0 0 1 3.52-1.411q1.887-.496 3.68-.497 7.716 0 7.717 8.228v13.913h-2.706L78.86 29.6a13 13 0 0 1-3.48 2.028q-1.85.715-3.52.715-2.905 0-4.555-1.65t-1.65-4.55" clip-rule="evenodd"/><mask id="b" width="20" height="24" x="87" y="9" maskUnits="userSpaceOnUse" style="mask-type:luminance"><path fill="#fff" fill-rule="evenodd" d="M87.02 9.884h19.415v22.579H87.02z" clip-rule="evenodd"/></mask><g mask="url(#b)"><path fill="#000" fill-rule="evenodd" d="M96.727 12.825q-2.863 0-4.395 2.147-1.534 2.147-1.533 6.28 0 4.096 1.533 6.182 1.531 2.087 4.395 2.087 2.902 0 4.437-2.087 1.53-2.086 1.531-6.181 0-4.134-1.531-6.281-1.534-2.147-4.437-2.147m0-2.941q4.536 0 7.12 2.941 2.588 2.943 2.588 8.428 0 5.406-2.567 8.308-2.567 2.9-7.14 2.901-4.536-.001-7.12-2.9-2.588-2.903-2.588-8.31 0-5.484 2.606-8.427 2.605-2.94 7.101-2.941" clip-rule="evenodd"/></g><path fill="#000" fill-rule="evenodd" d="m5.119.463-3.66.796v30.726h3.66zm1.313 20.312 9.627 11.768 2.825-2.187-8.156-9.779 7.043-8.824-2.865-2.067z" clip-rule="evenodd"/></svg>